# xmcd
#
# Track frame offsets:
#	150
#	14889
#	31548
#	58666
#	80603
#	103698
#	122467
#	148684
#	161982
#	187990
#	206669
#	225359
#	262988
#	282795
#	300674
#
# Disc length: 4199 seconds
#
# Revision: 1
# Processed by: cddbd v1.5.2PL0 Copyright (c) Steve Scherf et al.
# Submitted via: EasyCDDAExtractor 10.0.2.1
#
DISCID=c810650f
DTITLE=Various Artist - zvuková vlna
DYEAR=2006
DGENRE=Alternative
TTITLE0=gulo čar - Džas Dureder
TTITLE1=ludditák - l.u.d.d.i.t.a.
TTITLE2=besh o drom - Csuujogató
TTITLE3=ivan pop - Hymn For Sale
TTITLE4=czarne ciasteczka - Opluty74
TTITLE5=cabaret - Electric Chair Song
TTITLE6=pupilla project - Stand By
TTITLE7=petra fornayová - Vivanit
TTITLE8=mindmap - s nocou
TTITLE9=michal kořán - Mag nlnis
TTITLE10=korta et le mechanix - Cape Canaveral
TTITLE11=magic carpathians project - Nepal
TTITLE12=imiafan - Prechádzka
TTITLE13=kelet-nyugat - Kicsit
TTITLE14=martin rivický - Severní vítr
EXTD=
EXTT0=
EXTT1=
EXTT2=
EXTT3=
EXTT4=
EXTT5=
EXTT6=
EXTT7=
EXTT8=
EXTT9=
EXTT10=
EXTT11=
EXTT12=
EXTT13=
EXTT14=
PLAYORDER=
